# xmcd
#
# Track frame offsets: 
#        150
#        14858
#        28254
#        43219
#        58792
#        76581
#        92053
#        112827
#        131462
#        145696
#        158487
#        171350
#        184865
#        197496
#        210064
#        224087
#        240489
#        253932
#        266376
#        280272
#
# Disc length: 3960 seconds
#
# Revision: 0
# Processed by: cddbd v1.5.2PL0 Copyright (c) Steve Scherf et al.
# Submitted via: ExactAudioCopy v0.90b4
#
DISCID=1a0f7614
DTITLE=Various Artist - Sveriges Bästa Dansband 20
DYEAR=2008
DGENRE=Dansband
TTITLE0=Lasse Stefanz - När Countryn Kom Till Skåne
TTITLE1=Drifters - Låt Kärleken Födas
TTITLE2=Wahlströms - Vart Finns Vägen
TTITLE3=Vikingarna - Om Du Var Här Hos Mig
TTITLE4=Christina Lindberg - Det Är För Dig Mitt Hjärta Slår
TTITLE5=BlackJack - Natten Är Vår
TTITLE6=Ingmar Nordströms - Vår Sista Dans
TTITLE7=Dixie n' Dave - Fools Fall In Love
TTITLE8=Highlights - Vem
TTITLE9=Hans Martin - På Livets Höjd
TTITLE10=Lotta Engberg - Allt Jag Vill Säga
TTITLE11=Sven-Ingvars - Högt I Det Blå
TTITLE12=Christer Sjögren - När Du Går Över Floden
TTITLE13=Roland Cedermark - Livet På Landet
TTITLE14=Casanovas - Finns Det Nå'n Du Älskar
TTITLE15=Fernandoz - Mitt Liv Med Dig (With Christina Lindberg)
TTITLE16=Drifters - Lova Mig
TTITLE17=Grönwalls - I Varje Andetag
TTITLE18=Roland Cedermark - Solsken
TTITLE19=Helene and Gänget - Vindens Sång
EXTD=
EXTT0=
EXTT1=
EXTT2=
EXTT3=
EXTT4=
EXTT5=
EXTT6=
EXTT7=
EXTT8=
EXTT9=
EXTT10=
EXTT11=
EXTT12=
EXTT13=
EXTT14=
EXTT15=
EXTT16=
EXTT17=
EXTT18=
EXTT19=
PLAYORDER=
